<svg width="21" height="21" viewBox="0 0 21 21" fill="none" xmlns="http://www.w3.org/2000/svg">
<path d="M9.91601 4.33694C9.91601 3.98178 9.72997 3.66076 9.51481 3.3782C9.29393 3.0881 9.16601 2.744 9.16601 2.375C9.16601 1.33947 10.1734 0.5 11.416 0.5C12.6587 0.5 13.666 1.33947 13.666 2.375C13.666 2.744 13.5381 3.0881 13.3172 3.3782C13.1021 3.66076 12.916 3.98178 12.916 4.33694C12.916 4.66929 13.1937 4.9346 13.5255 4.9148C15.4361 4.80079 17.3159 4.57328 19.1582 4.23898C19.3609 4.20219 19.5699 4.25044 19.736 4.37241C19.9021 4.49437 20.0107 4.6793 20.0363 4.88377C20.2603 6.67324 20.3873 8.49263 20.4119 10.3365C20.4168 10.7028 20.1193 10.9999 19.753 11C19.3978 11 19.0768 10.814 18.7942 10.5988C18.5041 10.3779 18.16 10.25 17.791 10.25C16.7555 10.25 15.916 11.2574 15.916 12.5C15.916 13.7426 16.7555 14.75 17.791 14.75C18.16 14.75 18.5041 14.6221 18.7942 14.4012C19.0768 14.186 19.3978 14 19.753 14C20.0634 14 20.3099 14.2617 20.2874 14.5713C20.1688 16.2098 19.9691 17.8261 19.6924 19.4161C19.6381 19.728 19.3939 19.9721 19.0821 20.0264C17.2629 20.343 15.4094 20.5587 13.5275 20.6677C13.1945 20.6869 12.916 20.4205 12.916 20.0869C12.916 19.7318 13.1021 19.4108 13.3172 19.1282C13.5381 18.8381 13.666 18.494 13.666 18.125C13.666 17.0895 12.6587 16.25 11.416 16.25C10.1734 16.25 9.16601 17.0895 9.16601 18.125C9.16601 18.494 9.29393 18.8381 9.51481 19.1282C9.72997 19.4108 9.91601 19.7318 9.91601 20.0869C9.91601 20.4485 9.61998 20.7405 9.25854 20.7303C7.66904 20.6852 6.0984 20.564 4.55015 20.3702C4.34568 20.3446 4.16075 20.236 4.03879 20.0699C3.91682 19.9038 3.86857 19.6948 3.90537 19.4921C4.19824 17.8781 4.40916 16.2354 4.53361 14.5683C4.55659 14.2605 4.31164 14 4.00295 14C3.6478 14 3.32678 14.186 3.04421 14.4012C2.75412 14.6221 2.41001 14.75 2.04102 14.75C1.00548 14.75 0.166016 13.7426 0.166016 12.5C0.166016 11.2574 1.00548 10.25 2.04102 10.25C2.41001 10.25 2.75412 10.3779 3.04421 10.5988C3.32678 10.814 3.6478 11 4.00295 11C4.36932 11 4.66679 10.703 4.66175 10.3367C4.63936 8.70845 4.53463 7.10026 4.3516 5.51628C4.32532 5.28881 4.4044 5.06178 4.56632 4.89986C4.72824 4.73794 4.95526 4.65886 5.18274 4.68515C6.52504 4.84025 7.88462 4.93912 9.25908 4.97931C9.62016 4.98987 9.91601 4.69817 9.91601 4.33694Z" fill="#262626"/>
</svg>
