<svg width="21" height="20" viewBox="0 0 21 20" fill="none" xmlns="http://www.w3.org/2000/svg">
<path d="M10.334 0.25C10.7482 0.25 11.084 0.585786 11.084 1V3.25C11.084 3.66421 10.7482 4 10.334 4C9.91977 4 9.58398 3.66421 9.58398 3.25V1C9.58398 0.585786 9.91977 0.25 10.334 0.25Z" fill="#262626"/>
<path d="M5.83398 10C5.83398 7.51472 7.8487 5.5 10.334 5.5C12.8193 5.5 14.834 7.51472 14.834 10C14.834 12.4853 12.8193 14.5 10.334 14.5C7.8487 14.5 5.83398 12.4853 5.83398 10Z" fill="#262626"/>
<path d="M17.2283 4.16634C17.5212 3.87344 17.5212 3.39857 17.2283 3.10568C16.9354 2.81278 16.4606 2.81278 16.1677 3.10568L14.5767 4.69667C14.2838 4.98956 14.2838 5.46444 14.5767 5.75733C14.8696 6.05022 15.3444 6.05022 15.6373 5.75733L17.2283 4.16634Z" fill="#262626"/>
<path d="M20.084 10C20.084 10.4142 19.7482 10.75 19.334 10.75H17.084C16.6698 10.75 16.334 10.4142 16.334 10C16.334 9.58579 16.6698 9.25 17.084 9.25H19.334C19.7482 9.25 20.084 9.58579 20.084 10Z" fill="#262626"/>
<path d="M16.1676 16.8943C16.4604 17.1871 16.9353 17.1871 17.2282 16.8943C17.5211 16.6014 17.5211 16.1265 17.2282 15.8336L15.6372 14.2426C15.3443 13.9497 14.8695 13.9497 14.5766 14.2426C14.2837 14.5355 14.2837 15.0104 14.5766 15.3033L16.1676 16.8943Z" fill="#262626"/>
<path d="M10.334 16C10.7482 16 11.084 16.3358 11.084 16.75V19C11.084 19.4142 10.7482 19.75 10.334 19.75C9.91977 19.75 9.58398 19.4142 9.58398 19V16.75C9.58398 16.3358 9.91977 16 10.334 16Z" fill="#262626"/>
<path d="M6.09149 15.3033C6.38438 15.0104 6.38438 14.5355 6.09149 14.2426C5.79859 13.9497 5.32372 13.9497 5.03083 14.2426L3.43984 15.8336C3.14694 16.1265 3.14694 16.6014 3.43984 16.8943C3.73273 17.1872 4.2076 17.1872 4.5005 16.8943L6.09149 15.3033Z" fill="#262626"/>
<path d="M4.33398 10C4.33398 10.4142 3.9982 10.75 3.58398 10.75H1.33398C0.919771 10.75 0.583984 10.4142 0.583984 10C0.583984 9.58579 0.919771 9.25 1.33398 9.25H3.58398C3.9982 9.25 4.33398 9.58579 4.33398 10Z" fill="#262626"/>
<path d="M5.03071 5.75732C5.32361 6.05021 5.79848 6.05021 6.09137 5.75732C6.38427 5.46443 6.38427 4.98955 6.09137 4.69666L4.50038 3.10567C4.20749 2.81278 3.73262 2.81278 3.43972 3.10567C3.14683 3.39856 3.14683 3.87344 3.43972 4.16633L5.03071 5.75732Z" fill="#262626"/>
</svg>
